@startuml

!include player.puml
!include renderer.puml
!include mediasource.puml
!include datasource.puml
!include decoder.puml
!include extractor.puml
!include stream.puml
!include source_misc.puml
!include loadcontrol.puml
!include trackselection.puml
!include timeline.puml

interface ControlDispatcher
interface PlaybackPreparer
interface MediaClock


player <-up- mediasource
player <-up- renderer
player <-up- loadcontrol
player <-up- trackselection
player <-up- mediasource
mediasource <-- datasource
mediasource <-- mediaperiod
mediasource <-- timeline
mediasource <-- extractor
mediaperiod <-- extractor
renderer <-up- stream
renderer <-- decoder
chunk <-- datasource
trackselection <-- bandwidthmeter

@enduml